<svg width="923" height="856" viewBox="0 0 923 856" fill="none" xmlns="http://www.w3.org/2000/svg">
<path d="M86.0429 748.612C107.674 773.795 175.841 851.992 237.833 855.409C367.495 862.54 414.573 618.365 414.573 618.365C414.573 618.365 366.798 609.356 322.272 557.519C277.745 505.682 285.942 468.613 285.942 468.613C285.942 468.613 7.41265 505.781 0.360088 578.945C-5.6141 640.744 64.4242 723.444 86.0429 748.612Z" fill="white"/>
<path d="M592.164 335.7C649.543 402.501 641.906 503.168 575.105 560.548C508.305 617.927 407.637 610.29 350.258 543.489C292.878 476.689 300.516 376.021 367.316 318.641C434.117 261.262 534.785 268.899 592.164 335.7Z" fill="white"/>
<path d="M839 110.345C860.631 135.528 927.649 214.711 921.674 276.51C909.162 405.763 660.679 415.465 660.679 415.465C660.679 415.465 658.981 366.877 614.455 315.04C569.929 263.203 532.048 265.713 532.048 265.713C532.048 265.713 610.811 -4.02055 684.201 0.0454955C746.194 3.463 817.381 85.1764 839 110.345Z" fill="white"/>
</svg>
